<svg width="167" height="50" viewBox="0 0 167 50" fill="none" xmlns="http://www.w3.org/2000/svg">
<path d="M76.7058 46.3541C76.5795 46.5441 76.4216 46.7024 76.2953 46.8924C75.253 48.2857 73.9582 49.2673 72.2211 49.5522C69.1892 50.0906 66.8521 48.5706 66.1889 45.6575C65.0835 40.876 67.6417 34.638 74.0213 33.3398C76.4532 32.8331 78.8534 33.0864 81.2221 33.8147C81.4432 33.8781 82.0117 34.1631 82.1064 34.2264C81.9801 35.113 81.8538 36.0313 81.7274 36.9179C81.4116 39.1345 81.0642 41.351 80.7484 43.5992C80.6852 44.1375 80.6852 44.7075 80.78 45.2458C80.9379 46.1008 81.5379 46.4807 82.3907 46.2908C83.0223 46.1641 83.5908 45.8474 84.033 45.4041C84.633 44.8342 85.0436 44.1692 85.3278 43.4409C86.0226 41.731 86.2121 39.9261 86.1174 38.1212C86.0542 36.7279 85.77 35.398 85.1699 34.1314C83.9066 31.4082 81.759 29.6666 78.885 28.9383C74.7161 27.8617 70.8315 28.5267 67.389 31.1866C64.7045 33.2764 63.2201 36.0946 62.6201 39.3878C62.1779 41.8577 62.2095 44.2959 62.9675 46.7024C63.1886 47.4307 63.536 48.1273 63.8518 48.8556C63.9149 49.0139 64.0097 49.1723 64.1044 49.3623C63.8834 49.3623 63.7255 49.3623 63.5991 49.3623C62.5569 49.3623 61.5463 49.3623 60.504 49.3623C60.0935 49.3623 59.904 49.2039 59.7461 48.8556C59.146 47.399 58.767 45.8474 58.6723 44.2959C58.388 40.1477 59.2723 36.2846 61.6094 32.8331C64.2308 28.97 67.8312 26.6268 72.4106 25.7402C75.5373 25.1385 78.6008 25.2652 81.5695 26.4685C86.2437 28.3684 88.9914 31.8515 89.6862 36.8863C90.0652 39.6094 89.7178 42.2693 88.5177 44.7392C87.507 46.8607 85.9279 48.4123 83.6855 49.1723C82.4222 49.6156 81.0958 49.7422 79.7693 49.4889C78.3797 49.2039 77.4954 48.349 77.0532 47.0191C76.9901 46.7657 76.9269 46.5441 76.8322 46.2908C76.8006 46.3541 76.7374 46.3541 76.7058 46.3541ZM76.8006 37.2346C76.5795 37.1712 76.39 37.1079 76.2321 37.1079C74.8425 36.9496 73.7055 37.4246 72.758 38.4378C71.8421 39.4194 71.3684 40.5911 71.1789 41.921C71.0526 42.7126 71.0526 43.5042 71.3052 44.2642C71.6526 45.3091 72.6317 45.7841 73.6739 45.4358C74.2108 45.2458 74.6214 44.8975 75.0004 44.4542C75.5689 43.7576 75.9163 42.9659 76.1058 42.111C76.2321 41.446 76.3268 40.7811 76.4216 40.1161C76.5479 39.1345 76.6742 38.2162 76.8006 37.2346Z" fill="white"/>
<path d="M150.546 46.2273C150.64 45.974 150.767 45.7523 150.861 45.499C152.314 42.0475 153.767 38.5644 155.22 35.1129C155.693 33.973 156.546 33.4347 157.746 33.3713C158.125 33.3397 158.504 33.3397 158.883 33.403C159.894 33.5613 160.62 34.1313 160.999 35.1129C161.789 37.0128 162.578 38.9127 163.4 40.8443C164.505 43.5041 165.61 46.164 166.716 48.8238C166.81 49.0455 166.905 49.2671 167 49.5521C165.421 49.5521 163.905 49.5521 162.389 49.5521C160.968 45.974 159.578 42.4275 158.188 38.8494C158.125 38.8494 158.094 38.8494 158.062 38.8494C157.967 39.0394 157.873 39.1977 157.809 39.3877C156.704 42.2059 155.599 45.024 154.493 47.8106C154.304 48.2855 153.799 49.5521 153.799 49.5521C153.767 49.5521 153.609 49.5521 153.483 49.5521C151.398 49.5521 149.345 49.5521 147.261 49.5521C147.229 49.5521 147.229 49.5521 147.166 49.5521C147.103 49.4255 147.008 49.2038 146.914 49.0138C146.566 48.1589 146.187 47.3356 145.903 46.4806C145.745 46.069 145.524 45.9423 145.113 45.974C143.566 46.0057 142.018 45.974 140.471 45.974C139.871 45.974 139.871 45.974 139.65 46.5123C139.334 47.3039 139.018 48.0955 138.702 48.8872C138.607 49.1088 138.513 49.3305 138.418 49.5521C136.902 49.5521 135.449 49.5521 133.87 49.5521C133.965 49.2988 134.028 49.1088 134.091 48.9188C135.702 45.0557 137.312 41.2242 138.892 37.3611C139.176 36.6961 139.428 36.0312 139.713 35.3662C140.281 34.0046 141.26 33.308 142.745 33.3397C144.324 33.3713 145.24 33.9413 145.871 35.4295C147.293 38.8177 148.682 42.1742 150.103 45.5623C150.198 45.784 150.293 46.0057 150.388 46.2273C150.451 46.2273 150.482 46.2273 150.546 46.2273ZM144.292 42.2692C143.818 41.0026 143.376 39.831 142.776 38.6594C142.176 39.831 141.702 41.0026 141.26 42.2692C142.334 42.2692 143.25 42.2692 144.292 42.2692Z" fill="white"/>
<path d="M126.006 44.4541C126.006 46.164 126.006 47.8106 126.006 49.5522C124.553 49.5522 123.1 49.5522 121.648 49.5522C121.648 49.2989 121.648 40.5593 121.648 36.3479C121.648 34.7013 122.627 33.5297 124.427 33.498C126.953 33.498 129.417 33.498 131.912 33.498C133.049 33.498 134.123 33.8464 134.944 34.7013C135.449 35.2396 135.765 35.8729 135.923 36.6012C136.27 38.2478 136.302 39.8944 135.891 41.5093C135.418 43.3142 134.091 44.4225 132.228 44.4858C130.333 44.4541 127.364 44.4541 126.006 44.4541ZM126.038 40.591C126.322 40.591 130.554 40.591 130.68 40.591C131.249 40.591 131.628 40.1794 131.628 39.7677C131.659 39.2611 131.628 38.5644 131.628 38.1211C131.628 37.6778 131.28 37.2978 130.68 37.2978C130.554 37.2978 126.29 37.2978 126.038 37.2978C126.038 38.4061 126.038 39.4194 126.038 40.591Z" fill="white"/>
<path d="M107.783 45.8158C107.783 47.1141 107.783 48.3173 107.783 49.5523C106.488 49.5523 101.056 49.5523 97.7397 49.5523C97.1081 49.5523 96.4448 49.4573 95.8132 49.2673C93.5709 48.6023 92.3392 47.0191 91.8338 44.8025C91.6759 44.1059 91.6128 43.3776 91.5812 42.681C91.518 41.3194 91.518 39.9261 91.8022 38.5645C92.3707 35.683 94.2973 33.9098 97.2028 33.6248C97.8029 33.5615 98.3714 33.5298 98.9714 33.5298C100.74 33.5298 104.688 33.5298 104.972 33.5298C104.972 34.7964 104.972 36.0313 104.972 37.2979C104.688 37.2979 101.372 37.3296 99.9505 37.3612C99.382 37.3612 98.8451 37.3929 98.2766 37.4562C97.266 37.5512 96.5396 38.0895 96.2554 39.1028C95.9395 40.2111 95.8764 41.3827 95.9395 42.5226C95.9711 42.9976 96.0343 43.4726 96.129 43.9476C96.3501 45.0558 96.9502 45.5941 98.0556 45.7525C98.5925 45.8158 99.1609 45.8791 99.6978 45.8791C102.161 45.8158 107.467 45.8158 107.783 45.8158Z" fill="white"/>
<path d="M120.195 33.4663C120.195 34.0046 120.195 36.6328 120.195 37.2661C119.974 37.2661 119.784 37.2661 119.532 37.2661C118.426 37.2661 117.352 37.2661 116.279 37.2661C116.058 37.2661 115.836 37.2661 115.521 37.2661C115.521 41.3509 115.521 45.4673 115.521 49.5205C114.068 49.5205 112.647 49.5205 111.194 49.5205C111.194 45.4673 111.194 41.3509 111.194 37.2661C109.583 37.2661 108.036 37.2661 106.488 37.2661C106.488 36.7278 106.488 34.2896 106.488 33.4663C111.068 33.4663 115.647 33.4663 120.195 33.4663Z" fill="white"/>
<path d="M30.2481 49.3939C26.5214 50.2171 22.8894 50.2172 19.1311 49.2989C19.3838 49.1089 19.5417 48.9822 19.6996 48.8556C22.1946 46.8923 24.2159 44.5174 25.5108 41.5726C26.3635 39.6727 26.6477 37.6461 26.3635 35.5563C26.3319 35.3663 26.3951 35.1446 26.4898 35.018C27.8163 32.9597 29.3322 31.0598 31.3219 29.5716C32.6484 28.5583 34.1328 27.8617 35.8066 27.6717C37.0699 27.5134 38.3016 27.6717 39.4702 28.1783C43.1337 29.7616 45.9446 32.2948 47.3342 36.1262C49.3239 41.6359 46.2604 46.829 41.7757 48.8239C39.5965 49.8055 37.4173 49.6155 35.3329 48.4122C33.7222 47.494 32.4905 46.1957 31.6377 44.5491C31.3535 44.0108 31.164 43.3775 31.0061 42.7442C30.8798 42.1742 30.9745 41.6043 31.2903 41.066C31.6062 40.5277 31.9536 40.4643 32.3957 40.876C32.7747 41.2243 33.1221 41.6043 33.4379 42.0159C34.8276 43.8525 36.154 45.7207 37.5437 47.589C37.9226 48.0956 38.0174 48.1589 38.5227 47.9056C41.5546 46.4807 43.9233 44.3591 44.8392 41.0343C45.7551 37.7095 44.776 34.7963 42.4389 32.3264C41.5862 31.4398 40.5756 30.7748 39.3754 30.4899C38.1437 30.2049 37.0068 30.4582 35.9961 31.1865C34.5117 32.2631 33.7222 33.7514 33.659 35.5879C33.659 35.8729 33.659 36.1896 33.659 36.5062C33.4695 36.4745 33.3432 36.4745 33.2169 36.4112C32.1431 36.0629 31.164 36.2846 30.2797 36.9179C28.7006 38.0895 27.7531 39.6727 27.4689 41.6676C27.153 43.8208 27.8163 45.7524 28.9532 47.5573C29.3006 48.1906 29.7744 48.7289 30.2481 49.3939Z" fill="white"/>
<path d="M16.0992 13.4225C16.4466 13.4858 16.7308 13.5808 17.0151 13.6125C17.9941 13.7391 18.91 13.4858 19.668 12.8525C21.4682 11.3326 22.4157 9.36938 22.3209 6.99451C22.2578 4.77796 21.2787 2.87806 19.9207 1.19981C19.7627 1.00982 19.6364 0.851499 19.4153 0.598179C23.1736 -0.225111 26.8056 -0.193442 30.5955 0.661512C30.3429 0.851502 30.1849 0.97816 30.0586 1.10482C27.5636 3.06805 25.5739 5.41125 24.2474 8.32443C23.3947 10.2243 23.0473 12.2509 23.3316 14.3091C23.3631 14.6258 23.3316 14.8474 23.1421 15.1007C22.1314 16.6207 20.9945 18.0773 19.668 19.3439C18.7205 20.2305 17.6783 20.9904 16.5098 21.5604C14.4253 22.542 12.2777 22.7003 10.1933 21.8137C6.68762 20.3255 3.97153 17.8873 2.51874 14.3091C0.339556 8.92608 3.08722 3.44803 7.82459 1.26315C10.2564 0.154871 12.6567 0.439858 14.8675 1.92811C16.1308 2.78307 17.1414 3.89134 17.931 5.22127C18.3415 5.9179 18.6258 6.64619 18.7205 7.46948C18.7837 8.03945 18.6889 8.57776 18.3731 9.05273C18.0573 9.49604 17.7731 9.55937 17.3941 9.21106C16.9835 8.86274 16.6361 8.45109 16.3203 8.03945C14.9306 6.20288 13.6042 4.33464 12.2145 2.46641C11.8356 1.95977 11.7092 1.89644 11.1723 2.14976C8.10883 3.60635 5.77173 5.75957 4.85584 9.17939C3.81362 13.0425 5.80332 17.0006 8.64573 18.8055C11.9619 20.9588 15.057 18.7105 15.8781 15.924C16.036 15.3857 16.0676 14.7841 16.1308 14.2141C16.1308 13.8975 16.0992 13.6758 16.0992 13.4225Z" fill="white"/>
<path d="M24.9738 18.7739C26.553 21.3388 28.6374 23.302 31.0061 25.0753C28.4795 26.6585 26.5214 28.7484 24.7528 31.1549C23.1736 28.5901 21.1208 26.6268 18.7205 24.8536C21.2471 23.302 23.2052 21.2121 24.9738 18.7739Z" fill="white"/>
<path d="M39.5649 42.016C39.4386 41.8894 39.3439 41.7944 39.2491 41.6677C38.7438 41.0027 38.2069 40.3061 37.7016 39.6095C37.2594 39.0078 36.912 38.3112 36.8173 37.5513C36.7857 37.1713 36.8173 36.7596 36.912 36.3796C37.1015 35.7463 37.7647 35.5247 38.3648 35.8413C38.9964 36.1897 39.4386 36.6963 39.8176 37.2979C40.4177 38.2795 40.7651 39.3562 40.4808 40.5278C40.3861 41.1294 40.1018 41.636 39.5649 42.016Z" fill="white"/>
<path d="M10.1617 7.94434C10.2249 8.03933 10.3196 8.10266 10.3828 8.19765C10.9197 8.92595 11.4882 9.65424 12.0251 10.3825C12.4988 11.0158 12.8146 11.7125 12.8778 12.5041C12.9094 12.7891 12.8778 13.0741 12.8146 13.3274C12.6567 14.0873 11.9303 14.404 11.2671 14.024C10.5723 13.644 10.0985 13.0424 9.71956 12.3458C9.18266 11.3958 8.93 10.3509 9.21424 9.2426C9.37215 8.7043 9.65639 8.29265 10.1617 7.94434Z" fill="white"/>
<path d="M36.4066 16.0823C36.3435 16.2723 36.3119 16.399 36.2803 16.494C35.9329 17.6022 36.1224 18.6472 36.8172 19.5338C37.9858 21.0854 39.5649 22.0353 41.4914 22.2887C43.3548 22.542 45.0602 22.067 46.6709 21.1487C47.3342 20.7687 47.9342 20.2621 48.5659 19.8188C48.7238 19.6921 48.8817 19.5655 49.0396 19.4388C49.9555 21.782 49.8923 28.685 48.9449 30.7432C48.8185 30.5849 48.7238 30.4582 48.629 30.2999C46.9552 28.02 44.8707 26.2151 42.4073 24.8219C40.5439 23.7769 38.5227 23.2069 36.3751 23.3336C36.1856 23.3336 35.9961 23.3336 35.8382 23.3653C35.2697 23.5553 34.8275 23.3653 34.3538 23.017C32.8694 21.972 31.4798 20.8321 30.2481 19.5021C29.3953 18.5522 28.669 17.5073 28.1636 16.3356C27.2793 14.3408 27.1214 12.3142 27.9426 10.2876C29.3638 6.67782 31.7956 3.92297 35.396 2.40305C39.3754 0.724809 43.039 1.5481 46.1972 4.49294C47.1447 5.37956 47.9026 6.42451 48.4396 7.62778C49.4502 9.93932 49.3554 12.1875 48.1237 14.4041C47.2078 16.019 45.913 17.2539 44.3023 18.1405C43.5443 18.5839 42.7231 18.8372 41.8072 18.8055C41.3335 18.7738 40.9229 18.6472 40.5755 18.2989C40.2913 18.0139 40.2281 17.7606 40.4808 17.4439C40.8282 17.0323 41.2388 16.6206 41.6809 16.304C43.5127 14.9107 45.3445 13.5808 47.1763 12.2192C47.8079 11.7442 47.8711 11.6809 47.5237 10.9843C46.2604 8.38774 44.4602 6.29784 41.7441 5.1579C37.6068 3.41633 33.2168 5.37956 31.1324 8.54606C29.0164 11.8076 31.0692 14.9107 33.9432 15.7973C34.5117 15.9557 35.1118 15.9873 35.7118 16.0507C35.9013 16.114 36.1224 16.0823 36.4066 16.0823Z" fill="white"/>
<path d="M13.2883 33.8465C13.3199 33.7198 13.3199 33.6565 13.3515 33.5615C13.8252 32.2949 13.5725 31.1549 12.7198 30.1417C11.0144 28.1151 8.83519 27.2601 6.21384 27.6085C4.25573 27.8618 2.61345 28.7801 1.12907 30.0467C0.97116 30.1733 0.84483 30.3 0.686918 30.4266C-0.228973 28.8751 -0.228973 22.1304 0.686918 19.0906C0.813248 19.2806 0.939578 19.4072 1.06591 19.5656C2.73978 21.8138 4.79263 23.6187 7.22448 25.0119C9.43525 26.2469 11.8355 26.8168 14.3621 26.4369C14.52 26.4052 14.7095 26.4685 14.8674 26.5635C16.794 27.8301 18.5626 29.255 19.9838 31.0599C20.6154 31.8516 21.1208 32.6749 21.5313 33.5931C22.384 35.5564 22.5104 37.5513 21.7524 39.5145C20.3312 43.156 17.8678 45.9425 14.2674 47.4624C8.83518 49.7739 3.37143 46.9241 1.19224 42.1744C0.655336 41.0661 0.465842 39.8628 0.560589 38.6279C0.623754 37.7096 0.844831 36.8546 1.2554 36.063C2.23446 34.0998 3.71883 32.6115 5.64536 31.5982C6.43492 31.1866 7.25606 30.9649 8.17196 31.1233C8.29828 31.1549 8.4562 31.1866 8.58253 31.2499C9.46683 31.5983 9.56158 32.1049 8.92993 32.7699C8.61411 33.0865 8.2667 33.4031 7.88771 33.6565C6.05593 35.0181 4.22415 36.3797 2.39237 37.7413C1.91863 38.0896 1.85547 38.1846 2.07655 38.6912C3.56092 41.8894 5.77169 44.2642 9.30892 45.1509C10.6985 45.4992 12.0882 45.4359 13.4778 45.0242C15.2464 44.5176 16.7308 43.5043 17.9625 42.111C18.4362 41.5727 18.8152 40.9711 19.0679 40.2745C19.6995 38.5329 19.4153 36.9813 18.1836 35.6197C17.0466 34.3848 15.6254 33.7831 13.9515 33.8148C13.762 33.8465 13.541 33.8465 13.2883 33.8465Z" fill="white"/>
<path d="M41.8704 10.1925C40.9229 10.9208 40.007 11.6174 39.0595 12.2824C38.5858 12.6307 38.0173 12.884 37.4172 12.9474C37.0067 12.979 36.5645 12.979 36.1855 12.8524C35.5223 12.6307 35.3012 11.9657 35.5855 11.3641C35.6486 11.2375 35.7118 11.1108 35.8065 11.0158C36.8488 9.78086 38.1121 9.02091 39.7544 9.08424C40.6071 9.08424 41.3019 9.43255 41.8704 10.1925Z" fill="white"/>
<path d="M7.85608 39.736C8.83513 39.0077 9.78261 38.2794 10.7617 37.5828C11.4565 37.1078 12.246 36.8545 13.1303 36.9812C13.383 37.0128 13.6672 37.1395 13.8883 37.2978C14.2673 37.5828 14.3621 38.0261 14.1726 38.4694C14.141 38.5328 14.1094 38.6278 14.0778 38.6911C13.2883 40.1477 11.0459 41.1609 9.4352 40.781C8.80355 40.6543 8.26665 40.3377 7.85608 39.736Z" fill="white"/>
</svg>
