<svg width="143" height="42" viewBox="0 0 143 42" fill="none" xmlns="http://www.w3.org/2000/svg">
<path d="M65.6823 38.9374C65.5741 39.097 65.4389 39.23 65.3307 39.3896C64.4383 40.5599 63.3295 41.3845 61.8421 41.6239C59.2459 42.076 57.2447 40.7993 56.6768 38.3522C55.7302 34.3358 57.9208 29.0959 63.3836 28.0054C65.4659 27.5798 67.5213 27.7926 69.5495 28.4044C69.7388 28.4576 70.2256 28.6969 70.3068 28.7501C70.1986 29.4949 70.0904 30.2663 69.9822 31.011C69.7118 32.8729 69.4143 34.7348 69.1439 36.6233C69.0898 37.0755 69.0898 37.5543 69.1709 38.0064C69.3061 38.7246 69.82 39.0438 70.5501 38.8842C71.091 38.7778 71.5778 38.5118 71.9564 38.1394C72.4702 37.6607 72.8218 37.1021 73.0652 36.4903C73.6602 35.054 73.8224 33.5379 73.7413 32.0218C73.6872 30.8514 73.4438 29.7343 72.93 28.6703C71.8482 26.3829 70.0093 24.9199 67.5483 24.3082C63.9786 23.4038 60.6522 23.9624 57.7044 26.1967C55.4057 27.9522 54.1347 30.3195 53.6208 33.0857C53.2422 35.1604 53.2693 37.2085 53.9183 39.23C54.1076 39.8417 54.4051 40.4269 54.6755 41.0387C54.7296 41.1717 54.8108 41.3047 54.8919 41.4643C54.7026 41.4643 54.5674 41.4643 54.4592 41.4643C53.5668 41.4643 52.7014 41.4643 51.8089 41.4643C51.4573 41.4643 51.2951 41.3313 51.1599 41.0387C50.646 39.8151 50.3215 38.5118 50.2404 37.2085C49.997 33.7241 50.7542 30.479 52.7554 27.5798C55.0001 24.3348 58.083 22.3665 62.0044 21.6217C64.6817 21.1163 67.3049 21.2227 69.847 22.2335C73.8495 23.8294 76.2023 26.7552 76.7972 30.9844C77.1218 33.2719 76.8243 35.5062 75.7966 37.5809C74.9312 39.363 73.579 40.6663 71.6589 41.3047C70.5772 41.677 69.4414 41.7834 68.3055 41.5707C67.1156 41.3313 66.3584 40.6131 65.9798 39.496C65.9257 39.2832 65.8716 39.097 65.7905 38.8842C65.7634 38.9374 65.7093 38.9374 65.6823 38.9374ZM65.7634 31.277C65.5741 31.2238 65.4119 31.1706 65.2766 31.1706C64.0867 31.0376 63.1132 31.4366 62.3018 32.2877C61.5176 33.1123 61.1119 34.0965 60.9497 35.2136C60.8415 35.8786 60.8415 36.5435 61.0578 37.1819C61.3553 38.0596 62.1937 38.4586 63.0861 38.166C63.5459 38.0064 63.8974 37.7139 64.2219 37.3415C64.7087 36.7563 65.0062 36.0913 65.1685 35.3732C65.2766 34.8146 65.3578 34.256 65.4389 33.6975C65.5471 32.8729 65.6553 32.1016 65.7634 31.277Z" fill="#005EA4"/>
<path d="M128.91 38.831C128.991 38.6182 129.1 38.432 129.181 38.2192C130.425 35.32 131.669 32.3942 132.913 29.4949C133.318 28.5374 134.049 28.0852 135.076 28.032C135.401 28.0054 135.725 28.0054 136.05 28.0586C136.915 28.1916 137.537 28.6704 137.862 29.4949C138.538 31.0908 139.214 32.6867 139.917 34.3093C140.864 36.5435 141.81 38.7778 142.757 41.0121C142.838 41.1983 142.919 41.3845 143 41.6239C141.648 41.6239 140.35 41.6239 139.052 41.6239C137.835 38.6182 136.645 35.6392 135.455 32.6335C135.401 32.6335 135.374 32.6335 135.347 32.6335C135.266 32.7931 135.184 32.9261 135.13 33.0857C134.184 35.453 133.237 37.8203 132.291 40.1609C132.128 40.5599 131.696 41.6239 131.696 41.6239C131.669 41.6239 131.534 41.6239 131.425 41.6239C129.64 41.6239 127.883 41.6239 126.098 41.6239C126.071 41.6239 126.071 41.6239 126.017 41.6239C125.963 41.5175 125.881 41.3313 125.8 41.1717C125.503 40.4535 125.178 39.762 124.935 39.0438C124.8 38.698 124.61 38.5916 124.259 38.6182C122.934 38.6448 121.608 38.6182 120.283 38.6182C119.77 38.6182 119.77 38.6182 119.58 39.0704C119.31 39.7354 119.039 40.4003 118.769 41.0653C118.688 41.2515 118.607 41.4377 118.526 41.6239C117.227 41.6239 115.983 41.6239 114.631 41.6239C114.712 41.4111 114.766 41.2515 114.821 41.0919C116.2 37.8469 117.579 34.6284 118.931 31.3834C119.175 30.8248 119.391 30.2663 119.634 29.7077C120.121 28.564 120.959 27.9788 122.23 28.0054C123.583 28.032 124.367 28.5108 124.908 29.7609C126.125 32.6069 127.315 35.4264 128.532 38.2724C128.613 38.4586 128.694 38.6448 128.775 38.831C128.829 38.831 128.856 38.831 128.91 38.831ZM123.556 35.5062C123.15 34.4422 122.771 33.4581 122.258 32.474C121.744 33.4581 121.338 34.4422 120.959 35.5062C121.879 35.5062 122.663 35.5062 123.556 35.5062Z" fill="#005EA4"/>
<path d="M107.897 37.3414C107.897 38.7777 107.897 40.1609 107.897 41.6238C106.653 41.6238 105.409 41.6238 104.165 41.6238C104.165 41.411 104.165 34.0698 104.165 30.5322C104.165 29.1491 105.004 28.1649 106.545 28.1383C108.709 28.1383 110.818 28.1383 112.955 28.1383C113.928 28.1383 114.848 28.4309 115.551 29.1491C115.984 29.6012 116.254 30.1332 116.389 30.745C116.687 32.1281 116.714 33.5112 116.362 34.8678C115.957 36.3839 114.821 37.3148 113.225 37.368C111.602 37.3414 109.06 37.3414 107.897 37.3414ZM107.925 34.0964C108.168 34.0964 111.792 34.0964 111.9 34.0964C112.387 34.0964 112.711 33.7506 112.711 33.4048C112.738 32.9793 112.711 32.3941 112.711 32.0217C112.711 31.6493 112.414 31.3301 111.9 31.3301C111.792 31.3301 108.141 31.3301 107.925 31.3301C107.925 32.2611 107.925 33.1122 107.925 34.0964Z" fill="#005EA4"/>
<path d="M92.2934 38.4852C92.2934 39.5757 92.2934 40.5865 92.2934 41.6238C91.1846 41.6238 86.5331 41.6238 83.6935 41.6238C83.1526 41.6238 82.5847 41.544 82.0438 41.3844C80.1237 40.8258 79.069 39.4959 78.6363 37.634C78.5011 37.0488 78.447 36.4371 78.42 35.8519C78.3659 34.7082 78.3659 33.5378 78.6093 32.3941C79.0961 29.9736 80.7457 28.4841 83.2337 28.2447C83.7476 28.1915 84.2343 28.1649 84.7482 28.1649C86.2626 28.1649 89.6431 28.1649 89.8865 28.1649C89.8865 29.2289 89.8865 30.2662 89.8865 31.3301C89.6431 31.3301 86.8035 31.3567 85.5865 31.3833C85.0997 31.3833 84.64 31.4099 84.1532 31.4631C83.2878 31.5429 82.6658 31.9951 82.4224 32.8463C82.152 33.7772 82.0979 34.7614 82.152 35.7189C82.179 36.1179 82.2331 36.5169 82.3143 36.9158C82.5036 37.8468 83.0174 38.299 83.9639 38.432C84.4237 38.4852 84.9104 38.5384 85.3702 38.5384C87.4796 38.4852 92.0229 38.4852 92.2934 38.4852Z" fill="#005EA4"/>
<path d="M102.922 28.1118C102.922 28.564 102.922 30.7717 102.922 31.3036C102.732 31.3036 102.57 31.3036 102.354 31.3036C101.407 31.3036 100.488 31.3036 99.5681 31.3036C99.3788 31.3036 99.1895 31.3036 98.919 31.3036C98.919 34.7349 98.919 38.1927 98.919 41.5973C97.675 41.5973 96.4581 41.5973 95.2141 41.5973C95.2141 38.1927 95.2141 34.7349 95.2141 31.3036C93.8348 31.3036 92.5097 31.3036 91.1846 31.3036C91.1846 30.8515 91.1846 28.8034 91.1846 28.1118C95.1059 28.1118 99.0272 28.1118 102.922 28.1118Z" fill="#005EA4"/>
<path d="M25.9008 41.4909C22.7097 42.1825 19.5997 42.1825 16.3815 41.4111C16.5978 41.2515 16.733 41.1451 16.8683 41.0387C19.0047 39.3896 20.7355 37.3947 21.8443 34.9211C22.5745 33.3252 22.8179 31.6228 22.5745 29.8673C22.5474 29.7077 22.6015 29.5216 22.6826 29.4152C23.8185 27.6863 25.1166 26.0903 26.8203 24.8402C27.9561 23.989 29.2272 23.4039 30.6605 23.2443C31.7423 23.1113 32.797 23.2443 33.7976 23.6699C36.9346 24.9998 39.3415 27.1277 40.5314 30.3461C42.2352 34.9743 39.612 39.3364 35.7718 41.0121C33.9057 41.8367 32.0397 41.6771 30.2549 40.6664C28.8756 39.895 27.8209 38.8045 27.0908 37.4213C26.8474 36.9692 26.6851 36.4372 26.5499 35.9052C26.4417 35.4264 26.5228 34.9477 26.7933 34.4955C27.0637 34.0433 27.3612 33.9901 27.7398 34.3359C28.0643 34.6285 28.3618 34.9477 28.6322 35.2935C29.8222 36.8362 30.958 38.4055 32.1479 39.9748C32.4724 40.4004 32.5536 40.4536 32.9863 40.2408C35.5825 39.0438 37.6107 37.2617 38.395 34.4689C39.1793 31.676 38.3409 29.229 36.3397 27.1543C35.6095 26.4095 34.7441 25.8509 33.7164 25.6116C32.6617 25.3722 31.6882 25.585 30.8228 26.1967C29.5517 27.1011 28.8756 28.3512 28.8215 29.8939C28.8215 30.1333 28.8215 30.3993 28.8215 30.6653C28.6593 30.6387 28.5511 30.6387 28.4429 30.5855C27.5234 30.2929 26.6851 30.4791 25.9279 31.0111C24.5757 31.9952 23.7644 33.3252 23.521 35.0009C23.2506 36.8096 23.8185 38.4321 24.792 39.9482C25.0895 40.4802 25.4952 40.9323 25.9008 41.4909Z" fill="#005EA4"/>
<path d="M13.7853 11.2749C14.0828 11.3281 14.3262 11.4079 14.5696 11.4345C15.4079 11.5409 16.1922 11.3281 16.8412 10.7961C18.3827 9.51939 19.194 7.87028 19.1129 5.87539C19.0588 4.01349 18.2205 2.41757 17.0576 1.00784C16.9224 0.84825 16.8142 0.715259 16.6249 0.50247C19.8431 -0.189093 22.9531 -0.162491 26.1983 0.555671C25.982 0.715262 25.8468 0.821655 25.7386 0.928049C23.6021 2.57716 21.8984 4.54545 20.7626 6.99252C20.0324 8.58844 19.7349 10.2908 19.9783 12.0197C20.0053 12.2857 19.9783 12.4718 19.816 12.6846C18.9506 13.9614 17.9771 15.1849 16.8412 16.2488C16.0299 16.9936 15.1375 17.632 14.1369 18.1107C12.352 18.9353 10.513 19.0683 8.72813 18.3235C5.72629 17.0734 3.40054 15.0253 2.15653 12.0197C0.290519 7.4979 2.64331 2.89634 6.69986 1.06104C8.78222 0.130092 10.8375 0.36948 12.7306 1.61961C13.8123 2.33778 14.6777 3.26872 15.3538 4.38587C15.7054 4.97103 15.9488 5.5828 16.0299 6.27437C16.084 6.75314 16.0029 7.20532 15.7324 7.6043C15.462 7.97668 15.2186 8.02987 14.8941 7.73729C14.5425 7.4447 14.245 7.09892 13.9746 6.75314C12.7847 5.21042 11.6488 3.6411 10.4589 2.07179C10.1344 1.64621 10.0262 1.59301 9.56649 1.8058C6.94325 3.02933 4.94202 4.83804 4.15776 7.71069C3.26532 10.9557 4.96907 14.2805 7.403 15.7967C10.2426 17.6054 12.8929 15.7169 13.596 13.3762C13.7312 12.924 13.7583 12.4186 13.8123 11.9399C13.8123 11.6739 13.7853 11.4877 13.7853 11.2749Z" fill="#005EA4"/>
<path d="M21.3845 15.77C22.7367 17.9245 24.5216 19.5736 26.5498 21.0631C24.3863 22.3931 22.7096 24.1486 21.1952 26.1701C19.843 24.0156 18.0852 22.3665 16.0298 20.877C18.1933 19.5736 19.87 17.8181 21.3845 15.77Z" fill="#005EA4"/>
<path d="M33.8784 35.2934C33.7703 35.187 33.6891 35.1072 33.608 35.0008C33.1753 34.4422 32.7156 33.8571 32.2829 33.2719C31.9043 32.7665 31.6068 32.1813 31.5256 31.543C31.4986 31.2238 31.5256 30.878 31.6068 30.5588C31.769 30.0269 32.337 29.8407 32.8508 30.1067C33.3917 30.3992 33.7703 30.8248 34.0948 31.3302C34.6086 32.1547 34.9061 33.0591 34.6627 34.0432C34.5816 34.5486 34.3382 34.9742 33.8784 35.2934Z" fill="#005EA4"/>
<path d="M8.70091 6.67334C8.75499 6.75314 8.83613 6.80633 8.89021 6.88613C9.34996 7.49789 9.83674 8.10966 10.2965 8.72143C10.7021 9.2534 10.9726 9.83857 11.0267 10.5035C11.0537 10.7429 11.0267 10.9823 10.9726 11.1951C10.8374 11.8335 10.2154 12.0994 9.64743 11.7803C9.05247 11.4611 8.64682 10.9557 8.3223 10.3705C7.86255 9.57259 7.6462 8.69483 7.8896 7.76388C8.02482 7.31171 8.26821 6.96592 8.70091 6.67334Z" fill="#005EA4"/>
<path d="M31.1744 13.5092C31.1203 13.6688 31.0932 13.7752 31.0662 13.855C30.7687 14.7859 30.931 15.6637 31.5259 16.4084C32.5266 17.7118 33.8787 18.5097 35.5284 18.7225C37.124 18.9353 38.5843 18.5363 39.9636 17.765C40.5315 17.4458 41.0453 17.0202 41.5862 16.6478C41.7214 16.5414 41.8566 16.435 41.9918 16.3286C42.7761 18.2969 42.722 24.0954 41.9107 25.8243C41.8025 25.6913 41.7214 25.585 41.6403 25.452C40.207 23.5369 38.4221 22.0207 36.3127 20.8504C34.7171 19.9727 32.9863 19.4939 31.1473 19.6003C30.9851 19.6003 30.8228 19.6003 30.6876 19.6269C30.2008 19.7865 29.8222 19.6269 29.4165 19.3343C28.1455 18.4565 26.9556 17.499 25.9009 16.3818C25.1707 15.5839 24.5487 14.7061 24.116 13.722C23.3588 12.0463 23.2235 10.344 23.9267 8.64165C25.1436 5.60942 27.226 3.29534 30.309 2.01861C33.7165 0.608884 36.8535 1.30045 39.5579 3.77412C40.3692 4.51888 41.0183 5.39663 41.478 6.40738C42.3434 8.34907 42.2623 10.2376 41.2076 12.0995C40.4233 13.456 39.3145 14.4933 37.9353 15.2381C37.2862 15.6105 36.5831 15.8233 35.7988 15.7967C35.3932 15.7701 35.0416 15.6637 34.7441 15.3711C34.5007 15.1317 34.4467 14.9189 34.663 14.6529C34.9605 14.3072 35.3121 13.9614 35.6907 13.6954C37.2592 12.525 38.8277 11.4079 40.3963 10.2642C40.9371 9.86519 40.9912 9.812 40.6937 9.22683C39.612 7.04574 38.0705 5.29023 35.7448 4.33268C32.202 2.86976 28.443 4.51887 26.6581 7.17873C24.8462 9.91839 26.604 12.525 29.065 13.2698C29.5518 13.4028 30.0656 13.4294 30.5794 13.4826C30.7417 13.5358 30.931 13.5092 31.1744 13.5092Z" fill="#C00000"/>
<path d="M11.3786 28.431C11.4057 28.3246 11.4057 28.2714 11.4327 28.1916C11.8384 27.1276 11.622 26.1701 10.8918 25.3189C9.43147 23.6166 7.56546 22.8985 5.32084 23.191C3.64413 23.4038 2.23786 24.1752 0.966811 25.2391C0.831592 25.3455 0.723417 25.4519 0.588199 25.5583C-0.196066 24.255 -0.196066 18.5895 0.588199 16.036C0.696374 16.1956 0.804549 16.302 0.912723 16.435C2.34604 18.3235 4.10387 19.8396 6.18623 21.0099C8.07929 22.0473 10.1346 22.5261 12.2981 22.2069C12.4333 22.1803 12.5956 22.2335 12.7308 22.3133C14.3805 23.3772 15.8949 24.5742 17.1119 26.0903C17.6527 26.7552 18.0854 27.4468 18.437 28.2182C19.1672 29.8673 19.2754 31.543 18.6263 33.1921C17.4093 36.2509 15.2999 38.5916 12.217 39.8683C7.56546 41.81 2.88691 39.4162 1.0209 35.4264C0.561156 34.4954 0.398894 33.4847 0.480025 32.4473C0.534113 31.676 0.723418 30.9578 1.07499 30.2929C1.91334 28.6437 3.18439 27.3936 4.83405 26.5425C5.51014 26.1967 6.21328 26.0105 6.99754 26.1435C7.10572 26.1701 7.24093 26.1967 7.34911 26.2499C8.10633 26.5425 8.18746 26.968 7.64659 27.5266C7.37615 27.7926 7.07867 28.0586 6.75415 28.2714C5.18562 29.4151 3.61709 30.5588 2.04856 31.7026C1.6429 31.9952 1.58881 32.075 1.77812 32.5005C3.04917 35.187 4.94223 37.1819 7.97111 37.9267C9.16103 38.2192 10.351 38.166 11.5409 37.8203C13.0553 37.3947 14.3264 36.5435 15.3811 35.3732C15.7867 34.921 16.1112 34.4156 16.3276 33.8305C16.8685 32.3675 16.6251 31.0642 15.5704 29.9205C14.5968 28.8831 13.3798 28.3778 11.9465 28.4044C11.7843 28.431 11.595 28.431 11.3786 28.431Z" fill="#C00000"/>
<path d="M35.8529 8.56184C35.0416 9.17361 34.2573 9.75877 33.446 10.3173C33.0404 10.6099 32.5536 10.8227 32.0398 10.8759C31.6882 10.9025 31.3096 10.9025 30.9851 10.7961C30.4171 10.6099 30.2278 10.0514 30.4712 9.54599C30.5253 9.43959 30.5794 9.33319 30.6605 9.2534C31.553 8.21606 32.6347 7.5777 34.041 7.63089C34.7712 7.63089 35.3661 7.92348 35.8529 8.56184Z" fill="#C00000"/>
<path d="M6.72711 33.3783C7.56546 32.7665 8.37677 32.1548 9.21513 31.5696C9.81009 31.1706 10.4862 30.9578 11.2434 31.0642C11.4597 31.0908 11.7031 31.1972 11.8924 31.3302C12.217 31.5696 12.2981 31.942 12.1358 32.3144C12.1088 32.3676 12.0818 32.4474 12.0547 32.5006C11.3786 33.7241 9.45852 34.5752 8.07929 34.2561C7.53842 34.1497 7.07868 33.8837 6.72711 33.3783Z" fill="#C00000"/>
</svg>
