<svg width="40" height="40" viewBox="0 0 40 40" fill="none" xmlns="http://www.w3.org/2000/svg">
<circle cx="20" cy="20" r="20" fill="#662D91"/>
<path d="M13.25 12H26.75C28.483 12 29.8992 13.3565 29.9949 15.0656L30 15.25V24.75C30 26.483 28.6435 27.8992 26.9344 27.9949L26.75 28H13.25C11.517 28 10.1008 26.6435 10.0051 24.9344L10 24.75V15.25C10 13.517 11.3565 12.1008 13.0656 12.0051L13.25 12H26.75H13.25ZM28.5 17.373L20.3493 21.6637C20.1619 21.7623 19.9431 21.7764 19.7468 21.706L19.6507 21.6637L11.5 17.374V24.75C11.5 25.6682 12.2071 26.4212 13.1065 26.4942L13.25 26.5H26.75C27.6682 26.5 28.4212 25.7929 28.4942 24.8935L28.5 24.75V17.373ZM26.75 13.5H13.25C12.3318 13.5 11.5788 14.2071 11.5058 15.1065L11.5 15.25V15.679L20 20.1525L28.5 15.678V15.25C28.5 14.3318 27.7929 13.5788 26.8935 13.5058L26.75 13.5Z" fill="white"/>
</svg>
