<svg width="416" height="371" viewBox="0 0 416 371" fill="none" xmlns="http://www.w3.org/2000/svg">
<path d="M22.5 122.786C-10.8777 247.852 77.9204 324.538 172.087 349.669C231.569 364.668 359.431 361.315 395.034 227.911C409.623 174.888 402.998 59.2866 259.785 21.0659C196.025 4.04961 107.654 25.1223 76.2399 142.831C51.6974 234.792 116.186 283.525 184.849 301.85C226.607 312.716 317.084 308.365 342.311 213.841C373.844 95.6854 274.98 72.4059 248.005 65.2069C208.769 54.7354 148.026 80.5551 127.738 156.575C107.449 232.595 169.82 243.987 198.266 251.579C220.937 251.938 269.224 241.62 281.004 197.479C282.943 178.732 275.784 138.294 231.643 126.514" stroke="url(#paint0_linear_1_165)" stroke-width="30"/>
<defs>
<linearGradient id="paint0_linear_1_165" x1="11" y1="137.786" x2="468" y2="264.786" gradientUnits="userSpaceOnUse">
<stop stop-color="#ECE0F6" stop-opacity="0"/>
<stop offset="0.524622" stop-color="#ECE0F6"/>
<stop offset="1" stop-color="#ECE0F6" stop-opacity="0"/>
</linearGradient>
</defs>
</svg>
